<svg width="42" height="43" viewBox="0 0 42 43" fill="none" xmlns="http://www.w3.org/2000/svg">
<g id="gg:profile">
<g id="Group">
<path id="Vector" fill-rule="evenodd" clip-rule="evenodd" d="M29.6293 14.3333C29.6293 16.234 28.8918 18.0569 27.5791 19.4009C26.2663 20.7449 24.4858 21.5 22.6293 21.5C20.7728 21.5 18.9923 20.7449 17.6796 19.4009C16.3668 18.0569 15.6293 16.234 15.6293 14.3333C15.6293 12.4326 16.3668 10.6097 17.6796 9.26572C18.9923 7.92171 20.7728 7.16666 22.6293 7.16666C24.4858 7.16666 26.2663 7.92171 27.5791 9.26572C28.8918 10.6097 29.6293 12.4326 29.6293 14.3333ZM26.1293 14.3333C26.1293 15.2837 25.7606 16.1951 25.1042 16.8671C24.4478 17.5391 23.5576 17.9167 22.6293 17.9167C21.7011 17.9167 20.8108 17.5391 20.1545 16.8671C19.4981 16.1951 19.1293 15.2837 19.1293 14.3333C19.1293 13.383 19.4981 12.4715 20.1545 11.7995C20.8108 11.1275 21.7011 10.75 22.6293 10.75C23.5576 10.75 24.4478 11.1275 25.1042 11.7995C25.7606 12.4715 26.1293 13.383 26.1293 14.3333Z" fill="#D9D9D9"/>
<path id="Vector_2" fill-rule="evenodd" clip-rule="evenodd" d="M22.6293 0C11.9981 0 3.37933 8.82396 3.37933 19.7083C3.37933 30.5927 11.9981 39.4167 22.6293 39.4167C33.2606 39.4167 41.8793 30.5927 41.8793 19.7083C41.8793 8.82396 33.2606 0 22.6293 0ZM6.87933 19.7083C6.87933 23.4529 8.12708 26.9001 10.2183 29.6377C11.687 27.6632 13.5817 26.0629 15.7543 24.9621C17.927 23.8612 20.3189 23.2895 22.7431 23.2917C25.1359 23.2893 27.4977 23.8462 29.6485 24.9199C31.7992 25.9936 33.6823 27.5557 35.1541 29.4872C36.6704 27.4512 37.6913 25.0748 38.1324 22.5546C38.5735 20.0343 38.4221 17.4428 37.6907 14.9944C36.9593 12.546 35.669 10.3111 33.9264 8.47465C32.1839 6.63817 30.0393 5.25291 27.67 4.43349C25.3007 3.61407 22.7749 3.38405 20.3016 3.76245C17.8282 4.14085 15.4785 5.11681 13.4467 6.60955C11.4149 8.1023 9.7595 10.0689 8.61749 12.3467C7.47547 14.6245 6.87965 17.148 6.87933 19.7083ZM22.6293 35.8333C19.0137 35.8389 15.5073 34.5654 12.7033 32.2285C13.832 30.5743 15.3342 29.2237 17.0822 28.2916C18.8302 27.3596 20.7722 26.8736 22.7431 26.875C24.6894 26.8734 26.6079 27.3472 28.3395 28.2571C30.071 29.167 31.5655 30.4867 32.6988 32.1067C29.8731 34.5195 26.3089 35.8386 22.6293 35.8333Z" fill="#D9D9D9"/>
</g>
</g>
</svg>
